<svg xmlns="http://www.w3.org/2000/svg"  viewBox="0 0 100 100" width="240px" height="240px"><rect width="44" height="68" x="39" y="16" fill="#00a6a6"/><rect width="17" height="68" x="17" y="16" fill="#00a6a6" transform="rotate(-180 25.5 50)"/><rect width="17" height="3.5" x="17" y="16" fill="#444445"/><rect width="44" height="3.5" x="39" y="16" fill="#444445"/><rect width="17" height="3.5" x="17" y="80.5" fill="#444445"/><rect width="44" height="3.5" x="39" y="80.5" fill="#444445"/><rect width="3.5" height="68" x="30.5" y="16" fill="#444445"/><rect width="3.5" height="68" x="39" y="16" fill="#444445"/><path fill="#1f212b" d="M34,85H18c-0.553,0-1-0.447-1-1s0.447-1,1-1h15V17H18c-0.553,0-1-0.447-1-1s0.447-1,1-1h16	c0.553,0,1,0.447,1,1v68C35,84.553,34.553,85,34,85z"/><path fill="#1f212b" d="M82,85H39c-0.553,0-1-0.447-1-1V16c0-0.553,0.447-1,1-1h43c0.553,0,1,0.447,1,1s-0.447,1-1,1H40v66	h42c0.553,0,1,0.447,1,1S82.553,85,82,85z"/><path fill="#1f212b" d="M82.5,81h-40c-0.276,0-0.5-0.224-0.5-0.5v-32c0-0.276,0.224-0.5,0.5-0.5s0.5,0.224,0.5,0.5V80h39.5	c0.276,0,0.5,0.224,0.5,0.5S82.776,81,82.5,81z"/><path fill="#1f212b" d="M42.5,46c-0.276,0-0.5-0.224-0.5-0.5v-12c0-0.276,0.224-0.5,0.5-0.5s0.5,0.224,0.5,0.5v12	C43,45.776,42.776,46,42.5,46z"/><path fill="#1f212b" d="M42.5,32c-0.276,0-0.5-0.224-0.5-0.5v-2c0-0.276,0.224-0.5,0.5-0.5s0.5,0.224,0.5,0.5v2	C43,31.776,42.776,32,42.5,32z"/><path fill="#1f212b" d="M42.5,27c-0.276,0-0.5-0.224-0.5-0.5v-7c0-0.276,0.224-0.5,0.5-0.5h40c0.276,0,0.5,0.224,0.5,0.5	S82.776,20,82.5,20H43v6.5C43,26.776,42.776,27,42.5,27z"/><path fill="#1f212b" d="M30.5,81h-13c-0.276,0-0.5-0.224-0.5-0.5s0.224-0.5,0.5-0.5H30V20H17.5c-0.276,0-0.5-0.224-0.5-0.5	s0.224-0.5,0.5-0.5h13c0.276,0,0.5,0.224,0.5,0.5v61C31,80.776,30.776,81,30.5,81z"/></svg>